#!OML:ASF H:\MichaelJackson\Top Level 1\Subject 1\Session 1\male.ASF
:FULLY-SPECIFIED
:DEGREES
864
root 14.549 16.3993 23.1407 -162.821 229.421 171.641
lowerback 1.97962 3.83832 -0.48462
upperback 1.43635 5.09798 0.0679416
thorax 0.317082 2.54079 0.253036
lowerneck -7.57519 -1.62677 1.93412
upperneck 10.3633 -2.48642 0.343808
head 4.80265 -1.13328 -0.392883
rclavicle 1.33385e-013 -2.38542e-015
rhumerus -51.8717 -4.48235 -75.5428
rradius 49.1005
rwrist 6.23134
rhand -33.7321 -19.2544
rfingers 7.12502
rthumb -6.92091 -409.121
lclavicle 1.33385e-013 -2.38542e-015
lhumerus -42.9163 -6.35653 92.7544
lradius 59.2365
lwrist 16.547
lhand -8.77548 11.3887
lfingers 7.12502
lthumb 17.1625 40.6507
rfemur -17.6551 -18.7586 23.0084
rtibia 63.8911
rfoot 2.41568 -32.4486
rtoes 43.2254
lfemur -42.9403 21.3172 -24.4654
ltibia 47.1196
lfoot -19.3766 -20.5731
ltoes 19.7836
865
root 14.4702 16.4086 23.1877 -163.145 228.348 171.814
lowerback 2.16622 3.83846 -0.656607
upperback 1.49189 5.09332 -0.00392224
thorax 0.261543 2.53723 0.263354
lowerneck -7.4869 -1.7335 1.74838
upperneck 10.0842 -2.62704 0.588226
head 4.68649 -1.19926 -0.281895
rclavicle 1.05356e-014 -1.27222e-014
rhumerus -51.8404 -4.28316 -75.6818
rradius 49.2292
rwrist 6.47849
rhand -33.6443 -18.6463
rfingers 7.12502
rthumb -6.83619 -408.516
lclavicle 1.05356e-014 -1.27222e-014
lhumerus -43.0825 -6.57184 92.8325
lradius 59.5257
lwrist 16.4298
lhand -8.81188 11.3242
lfingers 7.12502
lthumb 17.1275 40.5893
rfemur -18.951 -19.0054 22.9141
rtibia 65.601
rfoot 6.22516 -30.981
rtoes 41.4882
lfemur -42.4892 21.085 -24.2024
ltibia 47.1402
lfoot -18.7206 -21.9711
ltoes 22.0626
866
root 14.3917 16.4174 23.2342 -163.443 227.325 171.956
lowerback 2.34189 3.85358 -0.819517
upperback 1.55688 5.10808 -0.0696726
thorax 0.221874 2.5433 0.275693
lowerneck -7.40284 -1.84144 1.56458
upperneck 9.81201 -2.76839 0.824646
head 4.57516 -1.26612 -0.174571
rclavicle 1.27222e-013 -3.49861e-014
rhumerus -51.7813 -4.06403 -75.8162
rradius 49.3098
rwrist 6.78948
rhand -33.5422 -18.1063
rfingers 7.12502
rthumb -6.73766 -407.979
lclavicle 1.27222e-013 -3.49861e-014
lhumerus -43.2055 -6.7573 92.9062
lradius 59.7752
lwrist 16.3148
lhand -8.82272 11.2704
lfingers 7.12502
lthumb 17.1171 40.5364
rfemur -20.2388 -19.2199 22.8042
rtibia 67.1588
rfoot 9.8798 -29.3478
rtoes 39.0862
lfemur -42.0471 20.9152 -23.9318
ltibia 47.1663
lfoot -18.1017 -23.2941
ltoes 23.8473
867
root 14.3132 16.4263 23.2807 -163.74 226.341 172.084
lowerback 2.51265 3.87655 -0.976857
upperback 1.6295 5.13278 -0.132254
thorax 0.192843 2.55423 0.288566
lowerneck -7.30999 -1.94547 1.39169
upperneck 9.54577 -2.90307 1.04044
head 4.46513 -1.33058 -0.0760507
rclavicle -2.62396e-014 -2.78299e-014
rhumerus -51.6851 -3.80649 -75.9566
rradius 49.335
rwrist 7.12888
rhand -33.4175 -17.653
rfingers 7.12502
rthumb -6.61727 -407.53
lclavicle -2.62396e-014 -2.78299e-014
lhumerus -43.2994 -6.89308 92.9677
lradius 59.9972
lwrist 16.2018
lhand -8.79254 11.2587
lfingers 7.12502
lthumb 17.1461 40.5221
rfemur -21.5075 -19.438 22.6666
rtibia 68.565
rfoot 13.2778 -27.6994
rtoes 36.5153
lfemur -41.5966 20.7968 -23.6591
ltibia 47.1863
lfoot -17.5403 -24.552
ltoes 25.1246
868
root 14.2348 16.4359 23.3272 -164.024 225.407 172.204
lowerback 2.66947 3.90859 -1.13475
upperback 1.70021 5.16918 -0.193003
thorax 0.169248 2.57094 0.304117
lowerneck -7.20827 -2.04349 1.23538
upperneck 9.29276 -3.02851 1.2289
head 4.35864 -1.39141 0.0106079
rclavicle -7.35503e-014 -1.59028e-015
rhumerus -51.5515 -3.5014 -76.1061
rradius 49.3076
rwrist 7.47618
rhand -33.2463 -17.3102
rfingers 7.12502
rthumb -6.45203 -407.192
lclavicle -7.35503e-014 -1.59028e-015
lhumerus -43.3814 -6.96583 93.0128
lradius 60.203
lwrist 16.0972
lhand -8.71101 11.2846
lfingers 7.12502
lthumb 17.2246 40.5412
rfemur -22.7709 -19.6598 22.5013
rtibia 69.829
rfoot 16.328 -26.226
rtoes 34.3118
lfemur -41.1468 20.7333 -23.3918
ltibia 47.1933
lfoot -17.0208 -25.7564
ltoes 25.9927
869
root 14.1565 16.4461 23.3737 -164.288 224.517 172.312
lowerback 2.80696 3.94618 -1.28827
upperback 1.76453 5.21293 -0.250979
thorax 0.149819 2.59134 0.320869
lowerneck -7.09046 -2.13155 1.09977
upperneck 9.05256 -3.13912 1.38237
head 4.25357 -1.44609 0.0826582
rclavicle -2.24627e-014 1.59028e-015
rhumerus -51.3786 -3.13873 -76.2653
rradius 49.233
rwrist 7.81063
rhand -32.9908 -17.0849
rfingers 7.12502
rthumb -6.20532 -406.974
lclavicle -2.24627e-014 1.59028e-015
lhumerus -43.4682 -6.95945 93.0395
lradius 60.4038
lwrist 15.9983
lhand -8.60388 11.3496
lfingers 7.12502
lthumb 17.3277 40.5972
rfemur -24.0308 -19.8896 22.3122
rtibia 70.963
rfoot 19.0039 -25.0135
rtoes 32.6086
lfemur -40.7038 20.7188 -23.1278
ltibia 47.1849
lfoot -16.5247 -26.9231
ltoes 26.5478
870
root 14.0784 16.4562 23.4201 -164.531 223.665 172.414
lowerback 2.92009 3.9845 -1.44165
upperback 1.8206 5.25776 -0.305068
thorax 0.135065 2.61227 0.342763
lowerneck -6.96205 -2.20593 0.995886
upperneck 8.82774 -3.23039 1.49038
head 4.15124 -1.4924 0.134946
rclavicle -9.99887e-014 -2.38542e-015
rhumerus -51.1628 -2.7157 -76.43
rradius 49.1153
rwrist 8.12869
rhand -32.6423 -16.9333
rfingers 7.12502
rthumb -5.86887 -406.832
lclavicle -9.99887e-014 -2.38542e-015
lhumerus -43.569 -6.8806 93.0488
lradius 60.6073
lwrist 15.9281
lhand -8.48784 11.4449
lfingers 7.12502
lthumb 17.4394 40.6826
rfemur -25.2841 -20.1339 22.0985
rtibia 71.9837
rfoot 21.3159 -24.0302
rtoes 31.2121
lfemur -40.2715 20.7386 -22.8665
ltibia 47.1619
lfoot -16.0635 -28.0525
ltoes 26.7912
871
root 14.0005 16.4658 23.4663 -164.76 222.843 172.519
lowerback 3.01032 4.02209 -1.59783
upperback 1.86687 5.30173 -0.356942
thorax 0.122459 2.6328 0.369616
lowerneck -6.82775 -2.26939 0.919638
upperneck 8.62147 -3.30644 1.55859
head 4.05364 -1.5321 0.169879
rclavicle 5.00937e-014 -2.62396e-014
rhumerus -50.9116 -2.24927 -76.5879
rradius 48.9717
rwrist 8.42937
rhand -32.159 -16.836
rfingers 7.12502
rthumb -5.40229 -406.747
lclavicle 5.00937e-014 -2.62396e-014
lhumerus -43.6947 -6.75018 93.0472
lradius 60.8211
lwrist 15.9018
lhand -8.39563 11.5731
lfingers 7.12502
lthumb 17.5281 40.803
rfemur -26.5258 -20.4011 21.8538
rtibia 72.9108
rfoot 23.2305 -23.2861
rtoes 30.204
lfemur -39.8537 20.7778 -22.6124
ltibia 47.127
lfoot -15.6136 -29.1542
ltoes 26.8143
872
root 13.9227 16.4752 23.5124 -164.993 222.046 172.642
lowerback 3.08332 4.05728 -1.76791
upperback 1.90456 5.34229 -0.408194
thorax 0.109297 2.65157 0.405647
lowerneck -6.68789 -2.32143 0.858836
upperneck 8.4355 -3.3673 1.6058
head 3.96189 -1.56466 0.195924
rclavicle -9.62118e-014 5.56597e-015
rhumerus -50.6363 -1.74794 -76.7289
rradius 48.8233
rwrist 8.70807
rhand -31.5124 -16.7467
rfingers 7.12502
rthumb -4.77793 -406.673
lclavicle -9.62118e-014 5.56597e-015
lhumerus -43.848 -6.58862 93.0404
lradius 61.0378
lwrist 15.9325
lhand -8.35062 11.7134
lfingers 7.12502
lthumb 17.5714 40.9394
rfemur -27.7477 -20.6999 21.5645
rtibia 73.764
rfoot 24.7382 -22.7254
rtoes 29.4707
lfemur -39.4408 20.8176 -22.3703
ltibia 47.0814
lfoot -15.1318 -30.2306
ltoes 26.7424
873
root 13.8451 16.4843 23.5583 -165.232 221.258 172.781
lowerback 3.14755 4.08508 -1.94708
upperback 1.93692 5.37277 -0.456154
thorax 0.0945062 2.66526 0.450673
lowerneck -6.54857 -2.36361 0.806692
upperneck 8.26749 -3.41549 1.64327
head 3.87664 -1.59097 0.217817
rclavicle 1.2921e-014 -2.3059e-014
rhumerus -50.3367 -1.22829 -76.8411
rradius 48.6751
rwrist 8.97751
rhand -30.702 -16.6221
rfingers 7.12502
rthumb -3.99533 -406.564
lclavicle 1.2921e-014 -2.3059e-014
lhumerus -44.0261 -6.40856 93.031
lradius 61.2518
lwrist 16.0218
lhand -8.37353 11.8372
lfingers 7.12502
lthumb 17.5494 41.0651
rfemur -28.9422 -21.0387 21.2363
rtibia 74.5584
rfoot 25.8257 -22.2044
rtoes 28.8017
lfemur -39.0265 20.8343 -22.1299
ltibia 47.025
lfoot -14.5915 -31.2775
ltoes 26.6613
874
root 13.7678 16.493 23.6038 -165.49 220.478 172.939
lowerback 3.2158 4.10878 -2.13554
upperback 1.968 5.39717 -0.503033
thorax 0.0752645 2.67586 0.501642
lowerneck -6.41776 -2.40043 0.763396
upperneck 8.11339 -3.4578 1.67854
head 3.79811 -1.61403 0.237561
rclavicle -6.26172e-014 1.74931e-014
rhumerus -50.0215 -0.713424 -76.9156
rradius 48.5414
rwrist 9.2415
rhand -29.7447 -16.4308
rfingers 7.12502
rthumb -3.07095 -406.388
lclavicle -6.26172e-014 1.74931e-014
lhumerus -44.2186 -6.23928 93.0241
lradius 61.4508
lwrist 16.1641
lhand -8.47108 11.9205
lfingers 7.12502
lthumb 17.4555 41.1568
rfemur -30.1013 -21.4129 20.866
rtibia 75.3071
rfoot 26.5274 -21.5445
rtoes 27.9445
lfemur -38.5975 20.8133 -21.8878
ltibia 46.9565
lfoot -13.9996 -32.2791
ltoes 26.5557
